<?xml version="1.0" standalone="no"?>
<!DOCTYPE svg PUBLIC "-//W3C//DTD SVG 20010904//EN"
 "http://www.w3.org/TR/2001/REC-SVG-20010904/DTD/svg10.dtd">
<svg version="1.0" xmlns="http://www.w3.org/2000/svg"
 width="512.000000pt" height="512.000000pt" viewBox="0 0 512.000000 512.000000"
 preserveAspectRatio="xMidYMid meet">
<metadata>
Created by potrace 1.14, written by Peter Selinger 2001-2017
</metadata>
<g transform="translate(0.000000,512.000000) scale(0.100000,-0.100000)"
fill="#000000" stroke="none">
<path d="M2785 4574 c-76 -67 -103 -76 -235 -80 -52 -2 -98 -3 -103 -4 -9 0
-4 -28 22 -115 11 -39 20 -72 20 -75 0 -3 5 -18 11 -35 7 -16 13 -38 16 -49 5
-28 34 -57 74 -75 30 -13 73 -16 250 -15 232 1 259 6 293 57 13 20 49 125 48
142 0 2 6 23 14 45 8 22 12 40 8 40 -3 0 -1 6 4 13 6 6 13 24 17 40 6 27 6 27
-46 28 -29 1 -69 1 -88 0 -67 0 -128 22 -192 70 -35 27 -65 48 -68 48 -3 0
-23 -16 -45 -35z m117 -184 c8 0 18 -4 24 -9 5 -6 20 -12 34 -15 57 -12 73
-16 77 -20 11 -11 -19 -76 -35 -77 -9 -1 -92 -2 -184 -2 -182 -2 -170 -6 -188
56 -5 15 -6 27 -2 28 4 0 16 3 27 6 11 2 30 5 43 6 12 0 22 5 22 9 0 4 8 8 18
8 9 0 35 11 56 25 39 24 40 24 67 4 15 -10 33 -19 41 -19z"/>
<path d="M2727 4034 c-1 -1 -20 -4 -42 -7 -69 -9 -181 -41 -223 -63 -15 -8
-32 -14 -39 -14 -6 0 -13 -3 -15 -7 -1 -5 -22 -21 -45 -37 -64 -43 -100 -81
-147 -154 -41 -65 -79 -150 -82 -184 -1 -9 -4 -25 -8 -35 -22 -54 -18 -210 9
-320 3 -13 7 -32 9 -43 18 -79 149 -298 233 -390 23 -24 39 -48 37 -52 -5 -8
-119 -45 -168 -54 -43 -8 -61 -12 -61 -14 0 -1 -9 -3 -20 -4 -72 -11 -186 -43
-254 -73 -51 -23 -158 -21 -206 2 -50 25 -84 82 -78 132 9 79 62 132 152 149
45 9 117 52 164 100 44 44 87 118 87 150 0 8 3 14 8 14 11 0 6 110 -7 160 -14
47 -37 95 -58 118 -16 16 -16 27 -3 53 6 10 12 45 13 77 3 107 -78 206 -188
229 -32 7 -247 10 -301 4 -8 -1 -11 -44 -9 -146 3 -136 4 -147 29 -189 25 -43
81 -89 138 -113 23 -11 84 -11 182 -1 25 3 32 -3 49 -36 25 -47 26 -120 2
-170 -17 -36 -103 -121 -113 -111 -3 3 -10 1 -16 -4 -7 -6 -23 -12 -37 -14
-82 -15 -167 -82 -205 -162 -63 -129 -7 -303 120 -374 20 -12 44 -21 52 -21
15 0 15 -2 0 -24 -36 -56 -57 -100 -78 -164 -19 -60 -21 -86 -20 -262 1 -107
1 -220 2 -250 l0 -56 698 1 697 0 3 39 c2 21 -2 51 -8 66 -21 51 -52 58 -262
55 l-190 -3 6 42 c4 22 11 43 16 44 6 2 10 9 10 16 0 20 61 76 112 102 44 23
130 49 188 58 50 8 106 16 150 21 25 3 78 14 118 25 86 24 88 24 73 7 -6 -8
-8 -17 -4 -21 11 -11 10 -190 -1 -198 -7 -5 -8 -11 -1 -15 6 -5 10 -54 9 -113
0 -58 1 -110 3 -115 2 -7 73 -11 206 -10 l202 0 1 45 c2 92 -56 137 -189 147
-40 3 -74 7 -76 10 -3 2 -6 55 -7 117 -2 62 -4 117 -5 122 -1 5 0 12 1 17 5
18 3 74 -3 84 -4 6 5 19 19 29 32 23 86 80 121 126 30 40 90 157 97 190 3 12
10 43 17 68 45 182 -9 369 -148 508 -39 39 -79 72 -88 72 -8 0 -15 4 -15 9 0
9 -120 67 -133 63 -24 -7 9 19 47 37 70 34 106 74 105 117 -1 10 1 28 4 39 3
11 8 42 11 68 4 26 12 71 18 100 6 29 11 76 11 105 0 63 -26 98 -82 108 -43 8
-192 11 -196 4 -2 -3 -18 -4 -37 -4 -41 2 -40 7 18 102 24 40 44 75 44 77 0 4
-419 2 -423 -1z m173 -141 c0 -4 -9 -21 -21 -38 -11 -16 -24 -39 -30 -50 -5
-11 -18 -33 -28 -50 -11 -16 -20 -32 -20 -35 -1 -6 271 -3 312 3 15 2 30 0 33
-4 3 -5 13 -6 22 -1 9 4 26 6 37 6 11 -1 28 -2 38 -3 13 -1 16 -7 12 -28 -11
-66 -18 -109 -20 -128 -1 -11 -5 -39 -9 -63 l-8 -43 -124 -62 c-130 -65 -156
-90 -146 -142 7 -37 34 -55 109 -72 113 -25 228 -86 301 -160 34 -35 60 -68
57 -73 -3 -6 -2 -10 3 -10 13 0 43 -104 46 -162 5 -89 -31 -215 -85 -299 -71
-111 -202 -193 -342 -216 -42 -7 -62 -11 -62 -13 0 -1 -18 -3 -40 -5 -114 -7
-253 -43 -337 -88 -126 -66 -206 -188 -217 -332 -1 -11 -634 -15 -645 -4 -13
12 -9 334 4 374 22 68 57 128 100 173 42 42 161 108 215 118 16 3 32 7 35 9 4
2 22 7 41 10 46 9 64 13 64 15 0 1 9 3 20 4 11 2 36 7 55 11 19 5 37 9 40 10
39 7 140 40 140 45 0 4 10 11 23 14 50 14 96 77 91 126 -6 57 -18 80 -70 136
-48 51 -84 94 -84 100 0 3 -11 20 -24 37 -44 59 -97 169 -111 229 -32 146 -31
225 8 335 30 85 68 143 128 197 42 37 142 89 198 102 14 4 32 11 39 17 8 6 12
6 12 -2 0 -7 5 -9 12 -5 28 17 228 32 228 17z m-1093 -258 c35 -20 63 -68 58
-95 -11 -59 -29 -98 -43 -96 -9 2 -27 -3 -41 -10 -13 -7 -29 -10 -34 -7 -6 3
-22 6 -37 5 -17 0 -41 12 -64 32 -37 31 -38 34 -40 107 -2 40 -2 77 0 80 2 3
41 6 86 5 62 -1 91 -6 115 -21z"/>
<path d="M1585 1518 c7 -39 45 -98 63 -98 6 0 12 -4 12 -8 0 -12 30 -14 208
-15 l162 -1 0 -71 c1 -38 1 -209 1 -379 l-1 -310 25 -42 c25 -42 81 -78 113
-72 15 3 17 42 17 498 0 458 -1 496 -17 513 -16 15 -45 17 -303 17 l-285 0 5
-32z"/>
<path d="M3044 1536 c-18 -14 -19 -31 -19 -511 0 -394 2 -498 13 -502 35 -14
131 59 133 101 1 12 2 35 3 51 1 17 5 36 9 43 5 6 5 12 0 12 -10 0 -10 91 0
108 5 6 5 12 0 12 -10 0 -10 91 0 108 5 6 5 12 0 12 -10 0 -10 91 0 108 5 6 5
12 0 12 -10 0 -10 91 0 108 5 6 5 12 0 12 -10 0 -10 91 0 108 5 6 4 12 -1 12
-5 0 -8 10 -6 23 1 12 3 27 3 32 1 7 57 10 154 9 83 -1 169 3 190 9 37 10 96
64 98 90 1 7 3 22 4 35 l2 22 -281 0 c-228 0 -286 -3 -302 -14z"/>
<path d="M2369 1326 c-5 -4 -4 -678 1 -685 11 -18 48 -28 95 -27 l50 2 0 347
c1 233 -3 350 -10 355 -8 5 -131 13 -136 8z"/>
<path d="M2704 1316 c-13 -14 -18 -695 -6 -697 53 -9 110 -4 128 10 20 16 20
23 20 356 l-1 340 -65 2 c-41 1 -69 -4 -76 -11z"/>
</g>
</svg>
