<svg xmlns="http://www.w3.org/2000/svg">
	<defs>
		<!--Instagram-->
		<symbol id="instagram" viewBox="0 0 448 512">
			<path d="M224.1 141c-63.6 0-114.9 51.3-114.9 114.9s51.3 114.9 114.9 114.9S339 319.5 339 255.9 287.7 141 224.1 141zm0 189.6c-41.1 0-74.7-33.5-74.7-74.7s33.5-74.7 74.7-74.7 74.7 33.5 74.7 74.7-33.6 74.7-74.7 74.7zm146.4-194.3c0 14.9-12 26.8-26.8 26.8-14.9 0-26.8-12-26.8-26.8s12-26.8 26.8-26.8 26.8 12 26.8 26.8zm76.1 27.2c-1.7-35.9-9.9-67.7-36.2-93.9-26.2-26.2-58-34.4-93.9-36.2-37-2.1-147.9-2.1-184.9 0-35.8 1.7-67.6 9.9-93.9 36.1s-34.4 58-36.2 93.9c-2.1 37-2.1 147.9 0 184.9 1.7 35.9 9.9 67.7 36.2 93.9s58 34.4 93.9 36.2c37 2.1 147.9 2.1 184.9 0 35.9-1.7 67.7-9.9 93.9-36.2 26.2-26.2 34.4-58 36.2-93.9 2.1-37 2.1-147.8 0-184.8zM398.8 388c-7.8 19.6-22.9 34.7-42.6 42.6-29.5 11.7-99.5 9-132.1 9s-102.7 2.6-132.1-9c-19.6-7.8-34.7-22.9-42.6-42.6-11.7-29.5-9-99.5-9-132.1s-2.6-102.7 9-132.1c7.8-19.6 22.9-34.7 42.6-42.6 29.5-11.7 99.5-9 132.1-9s102.7-2.6 132.1 9c19.6 7.8 34.7 22.9 42.6 42.6 11.7 29.5 9 99.5 9 132.1s2.7 102.7-9 132.1z"/>
		</symbol>
		<!--Facebook-->
		<symbol id="facebook" viewBox="0 0 320 512">
			<path d="M279.14 288l14.22-92.66h-88.91v-60.13c0-25.35 12.42-50.06 52.24-50.06h40.42V6.26S260.43 0 225.36 0c-73.22 0-121.08 44.38-121.08 124.72v70.62H22.89V288h81.39v224h100.17V288z"/>
		</symbol>
		<!--Youtube-->
		<symbol id="youtube" viewBox="0 0 576 512">
			<path d="M549.655 124.083c-6.281-23.65-24.787-42.276-48.284-48.597C458.781 64 288 64 288 64S117.22 64 74.629 75.486c-23.497 6.322-42.003 24.947-48.284 48.597-11.412 42.867-11.412 132.305-11.412 132.305s0 89.438 11.412 132.305c6.281 23.65 24.787 41.5 48.284 47.821C117.22 448 288 448 288 448s170.78 0 213.371-11.486c23.497-6.321 42.003-24.171 48.284-47.821 11.412-42.867 11.412-132.305 11.412-132.305s0-89.438-11.412-132.305zm-317.51 213.508V175.185l142.739 81.205-142.739 81.201z"/>
		</symbol>
		<!--Linkedin-->
		<symbol id="linkedin" viewBox="0 0 30 30">
			<path d="M9,25H4V10h5V25z M6.501,8C5.118,8,4,6.879,4,5.499S5.12,3,6.501,3C7.879,3,9,4.121,9,5.499C9,6.879,7.879,8,6.501,8z M27,25h-4.807v-7.3c0-1.741-0.033-3.98-2.499-3.98c-2.503,0-2.888,1.896-2.888,3.854V25H12V9.989h4.614v2.051h0.065 c0.642-1.18,2.211-2.424,4.551-2.424c4.87,0,5.77,3.109,5.77,7.151C27,16.767,27,25,27,25z"/>
		</symbol>
		<!--Twitter-->
		<symbol id="twitter" viewBox="0 0 310 253.81">
			<path d="M302.98,29.29c-4.87,2.16-9.88,3.98-14.99,5.46,6.06-6.85,10.67-14.91,13.49-23.73,.63-1.98-.02-4.14-1.65-5.43-1.62-1.29-3.88-1.45-5.67-.39-10.86,6.44-22.59,11.08-34.88,13.78C246.9,6.89,230.09,0,212.7,0c-36.7,0-66.55,29.85-66.55,66.55,0,2.89,.18,5.76,.54,8.6-45.53-4-87.87-26.38-116.94-62.04-1.04-1.27-2.63-1.96-4.27-1.83-1.64,.13-3.1,1.05-3.93,2.47-5.9,10.12-9.01,21.69-9.01,33.46,0,16.04,5.72,31.25,15.84,43.14-3.08-1.07-6.06-2.4-8.91-3.98-1.53-.85-3.4-.84-4.91,.03-1.52,.87-2.47,2.47-2.51,4.22,0,.29,0,.59,0,.89,0,23.93,12.88,45.48,32.58,57.23-1.69-.17-3.38-.41-5.06-.74-1.73-.33-3.51,.28-4.68,1.6-1.17,1.32-1.56,3.16-1.02,4.84,7.29,22.76,26.06,39.5,48.75,44.6-18.82,11.79-40.34,17.96-62.93,17.96-4.71,0-9.45-.28-14.1-.83-2.31-.27-4.51,1.09-5.29,3.28-.79,2.19,.05,4.64,2.01,5.9,29.02,18.61,62.58,28.44,97.05,28.44,67.75,0,110.14-31.95,133.76-58.75,29.46-33.42,46.36-77.66,46.36-121.37,0-1.83-.03-3.67-.08-5.51,11.62-8.76,21.63-19.35,29.77-31.54,1.24-1.85,1.1-4.29-.33-6-1.43-1.7-3.82-2.25-5.85-1.35Z"/>
		</symbol>
		<!--Whatsapp-->
		<symbol id="whatsapp" viewBox="0 0 448 512">
			<path id="neon" d="M380.9 97.1C339 55.1 283.2 32 223.9 32c-122.4 0-222 99.6-222 222 0 39.1 10.2 77.3 29.6 111L0 480l117.7-30.9c32.4 17.7 68.9 27 106.1 27h.1c122.3 0 224.1-99.6 224.1-222 0-59.3-25.2-115-67.1-157zm-157 341.6c-33.2 0-65.7-8.9-94-25.7l-6.7-4-69.8 18.3L72 359.2l-4.4-7c-18.5-29.4-28.2-63.3-28.2-98.2 0-101.7 82.8-184.5 184.6-184.5 49.3 0 95.6 19.2 130.4 54.1 34.8 34.9 56.2 81.2 56.1 130.5 0 101.8-84.9 184.6-186.6 184.6zm101.2-138.2c-5.5-2.8-32.8-16.2-37.9-18-5.1-1.9-8.8-2.8-12.5 2.8-3.7 5.6-14.3 18-17.6 21.8-3.2 3.7-6.5 4.2-12 1.4-32.6-16.3-54-29.1-75.5-66-5.7-9.8 5.7-9.1 16.3-30.3 1.8-3.7.9-6.9-.5-9.7-1.4-2.8-12.5-30.1-17.1-41.2-4.5-10.8-9.1-9.3-12.5-9.5-3.2-.2-6.9-.2-10.6-.2-3.7 0-9.7 1.4-14.8 6.9-5.1 5.6-19.4 19-19.4 46.3 0 27.3 19.9 53.7 22.6 57.4 2.8 3.7 39.1 59.7 94.8 83.8 35.2 15.2 49 16.5 66.6 13.9 10.7-1.6 32.8-13.4 37.4-26.4 4.6-13 4.6-24.1 3.2-26.4-1.3-2.5-5-3.9-10.5-6.6z"/>
		</symbol>
		<!--E-mail-->
		<symbol id="mail" viewBox="0 0 20 16">
			<path id="_Icon-Color" d="M18,0H2C.9,0,0,.9,0,2V14c0,1.1,.9,2,2,2H18c1.1,0,2-.9,2-2V2c0-1.1-.9-2-2-2Zm-.4,4.25l-6.54,4.09c-.65,.41-1.47,.41-2.12,0L2.4,4.25c-.25-.16-.4-.43-.4-.72,0-.67,.73-1.07,1.3-.72l6.7,4.19,6.7-4.19c.57-.35,1.3,.05,1.3,.72,0,.29-.15,.56-.4,.72Z"/>
		</symbol>
		<symbol id="mail-outline" viewBox="0 0 260.9 176.58">
			<path d="M251.55,8.16c-.06-.05-.11-.11-.17-.15-2.84-2.49-6.55-4.01-10.61-4.01H20.13c-4.05,0-7.76,1.51-10.59,4-.08,.07-.16,.14-.24,.22-3.25,2.95-5.3,7.2-5.3,11.92V156.45c0,8.9,7.24,16.13,16.13,16.13H240.77c8.9,0,16.13-7.24,16.13-16.13V20.14c0-4.75-2.08-9.01-5.35-11.97Zm-16.24,7.08l-99.5,79.93c-3.16,2.53-7.57,2.53-10.72,0L25.59,15.24H235.31Zm5.46,146.1H20.13c-2.7,0-4.89-2.19-4.89-4.89V21.35L118.05,103.94c3.65,2.93,8.02,4.39,12.4,4.39s8.75-1.46,12.4-4.39L245.66,21.35V156.45c0,2.7-2.19,4.89-4.89,4.89Z" style="stroke:#fff; stroke-miterlimit:10; stroke-width:8px;"/>
		</symbol>
		<!--Telefone-->
		<svg id="phone" viewBox="0 0 123.69 123.69">
			<path d="M121.13,94.65l-22.5-16.45c-2.48-1.81-5.9-1.56-8.08,.59l-12.02,11.81-.04,.04c-2.1,2.03-5.45,2-7.5-.08l-20.78-20.78-17.06-17.06c-2.08-2.06-2.12-5.4-.08-7.5l.04-.04,11.81-12.02c2.15-2.19,2.4-5.61,.59-8.08L29.04,2.57C27-.22,23.08-.83,20.29,1.21c-.26,.19-.51,.4-.73,.63L11.08,10.31c-.54,.54-1.05,1.09-1.53,1.67-1.56,1.84-4.93,5.96-6.21,8.62C-2.69,33.31-.42,48.4,9.07,58.77l55.85,55.85c10.37,9.49,25.46,11.76,38.17,5.74,2.65-1.28,6.78-4.65,8.62-6.21,.58-.49,1.13-1,1.67-1.53l8.48-8.48c2.45-2.45,2.45-6.41,0-8.86-.23-.23-.47-.44-.73-.63Z"/>
		</svg>
		<symbol id="phone-outline" viewBox="0 0 252.97 252.97">
			<path d="M194.85,252.97c-38.31,0-86.7-30.76-125.4-69.45C16.98,131.05-20.91,60.73,12.74,21.91c2.14-2.47,4.87-4.36,8.12-5.64,4.01-1.57,11.28-4.64,21.6-9.12h.02c4.8-2.09,9.4-4.11,12.92-5.65,8.28-3.63,17.99-.51,22.61,7.27l29.24,49.28c3.19,5.37,3.33,12.12,.38,17.62l-17.52,32.64,54.53,54.53,32.63-17.52c5.51-2.96,12.26-2.8,17.62,.38l45.78,27.17,6.06,3.92h0c5.86,5.06,7.91,13.47,4.71,20.77-1.32,2.99-2.97,6.76-4.71,10.77l2.12-4.88-3.17,7.28c-4.35,10.03-7.47,17.42-9.02,21.38-1.27,3.25-3.17,5.98-5.63,8.12-10.19,8.83-22.56,12.73-36.21,12.73ZM50.6,25.07h0c-10.7,4.64-18.29,7.84-22.56,9.52-.35,.13-.48,.25-.48,.25-24.06,27.76,9.85,88.82,55.8,134.77,45.95,45.95,107,79.85,134.81,55.77h0s.09-.14,.21-.44c1.69-4.31,4.89-11.9,9.52-22.57l4.9-11.3-47.08-27.94-32.91,17.67c-7.02,3.77-15.52,2.51-21.15-3.12l-56.37-56.37c-5.63-5.63-6.89-14.13-3.12-21.15l17.67-32.91L61.89,20.15c-3.24,1.42-7.19,3.15-11.29,4.93Z"/>
		</symbol>
		<!--Localização-->
		<symbol id="google-maps" viewBox="0 0 190 232.09">
			<path d="M95,0C42.53,0,0,42.53,0,95S95,232.09,95,232.09c0,0,95-84.62,95-137.09S147.47,0,95,0Zm0,138.01c-25.23,0-45.7-20.46-45.7-45.7s20.46-45.7,45.7-45.7,45.7,20.46,45.7,45.7-20.46,45.7-45.7,45.7Z"/>
		</symbol>
		<symbol id="google-maps-outline" viewBox="0 0 174.7 252.9">
			<path d="M87.35,252.9c-2.98,0-5.74-1.58-7.26-4.14l-12.56-21.25c-25.91-43.81-50.39-85.19-58.71-101.88C2.96,113.6,0,100.74,0,87.35,0,39.18,39.19,0,87.35,0s87.35,39.18,87.35,87.35c0,13.39-2.95,26.24-8.78,38.2-.06,.12-.12,.23-.18,.35-8.45,16.87-32.8,58.04-58.57,101.61l-12.57,21.25c-1.51,2.57-4.27,4.14-7.26,4.14Zm0-236.04c-38.87,0-70.49,31.62-70.49,70.49,0,10.81,2.38,21.18,7.08,30.82,8.01,16.08,33.46,59.1,58.07,100.71l5.34,9.03,5.31-8.98c24.62-41.62,50.08-84.67,58.13-100.82,.03-.06,.06-.13,.1-.19,4.61-9.57,6.95-19.85,6.95-30.56,0-38.87-31.62-70.49-70.49-70.49Z"/><path d="M87.35,125.32c-22.69,0-41.16-18.46-41.16-41.16s18.46-41.15,41.16-41.15,41.16,18.46,41.16,41.16-18.46,41.15-41.16,41.15Zm0-65.45c-13.4,0-24.3,10.9-24.3,24.3s10.9,24.3,24.3,24.3,24.3-10.9,24.3-24.3-10.9-24.3-24.3-24.3Z"/>
		</symbol>
	</defs>
</svg>

